<svg xmlns="http://www.w3.org/2000/svg" height="24" viewBox="0 -960 960 960" width="24"><path d="M280-80q-33 0-56.5-23.5T200-160q0-33 23.5-56.5T280-240q33 0 56.5 23.5T360-160q0 33-23.5 56.5T280-80Zm400 0q-33 0-56.5-23.5T600-160q0-33 23.5-56.5T680-240q33 0 56.5 23.5T760-160q0 33-23.5 56.5T680-80ZM480-580q-17 0-28.5-11.5T440-620q0-17 11.5-28.5T480-660q17 0 28.5 11.5T520-620q0 17-11.5 28.5T480-580Zm-40-140v-200h80v200h-80ZM280-280q-45 0-69-39.5t-1-78.5l54-98-144-304H40v-80h131l170 360h281l155-280 70 38-155 280q-11 20-29 31t-41 11H324l-44 80h480v80H280Z"/></svg>